<?xml version="1.0" encoding="iso-8859-1"?>
<!-- Generator: Adobe Illustrator 19.0.0, SVG Export Plug-In . SVG Version: 6.00 Build 0)  -->
<svg version="1.1" id="Layer_1" xmlns="http://www.w3.org/2000/svg" xmlns:xlink="http://www.w3.org/1999/xlink" x="0px" y="0px"
	 viewBox="0 0 512 512" style="enable-background:new 0 0 512 512;" xml:space="preserve">
<path style="fill:#FFFFFF;" d="M256,508C117.048,508,4,394.952,4,256S117.048,4,256,4s252,113.048,252,252S394.952,508,256,508z"/>
<path style="fill:#999999;" d="M256,8c136.744,0,248,111.256,248,248S392.744,504,256,504S8,392.744,8,256S119.256,8,256,8 M256,0
	C114.616,0,0,114.616,0,256s114.616,256,256,256s256-114.616,256-256S397.384,0,256,0L256,0z"/>
<g style="opacity:0.5;">
	<path style="fill:#FFFFFF;" d="M256,483.832c-125.632,0-227.832-102.2-227.832-227.832S130.368,28.168,256,28.168
		S483.832,130.368,483.832,256S381.632,483.832,256,483.832z"/>
	<path style="fill:#999999;" d="M256,30.168c124.528,0,225.832,101.312,225.832,225.832S380.528,481.832,256,481.832
		S30.168,380.528,30.168,256S131.472,30.168,256,30.168 M256,26.168C129.064,26.168,26.168,129.064,26.168,256
		S129.064,485.832,256,485.832S485.832,382.936,485.832,256S382.936,26.168,256,26.168L256,26.168z"/>
</g>
<g>
	<path style="fill:#E21B1B;" d="M133.712,255.76h-28.8l-6.952,33.264H82.616l15.592-74.448h15.28l-5.984,28.744h28.792l6.04-28.744
		h15.288l-15.536,74.448h-15.336L133.712,255.76z"/>
	<path style="fill:#E21B1B;" d="M189.872,289.024h-15.336l13-62h-21.832l2.584-12.44h58.656l-2.592,12.44h-21.528L189.872,289.024z"
		/>
	<path style="fill:#E21B1B;" d="M263.824,289.024h-14.528l-2.688-62.208l-11.832,62.208H220.96l15.528-74.448h21.84l2.28,52.152
		L286,214.576h22.096l-15.592,74.448h-13.968l14.68-61.752L263.824,289.024z"/>
	<path style="fill:#E21B1B;" d="M308.048,289.024l15.592-74.448h15.28l-12.952,62.008h37.888l-2.592,12.44H308.048z"/>
	<path style="fill:#E21B1B;" d="M373.504,267.696l14.168-1.264c-0.032,0.672-0.048,1.176-0.048,1.512
		c0,3.456,0.776,6.048,2.312,7.776s3.544,2.584,6.016,2.584c3.456,0,6.592-1.648,9.424-4.944c2.832-3.304,4.232-7.864,4.232-13.688
		c0-3.456-0.792-6.064-2.384-7.824s-3.712-2.64-6.352-2.64c-1.888,0-3.728,0.44-5.504,1.32s-3.496,2.216-5.152,4.008l-11.984-0.904
		l11.32-38.04h37.432l-2.752,13.304h-24.728l-3.4,11.48c1.424-0.648,2.84-1.128,4.264-1.448c1.424-0.328,2.824-0.488,4.208-0.488
		c5.688,0,10.36,1.912,14.016,5.744c3.656,3.824,5.488,8.952,5.488,15.384c0,5.152-1.28,10.216-3.832,15.208
		s-6.104,8.832-10.64,11.504c-4.528,2.672-9.288,4.008-14.264,4.008c-6.328,0-11.536-2.048-15.616-6.144
		S373.568,274.568,373.504,267.696z"/>
</g>
<g>
</g>
<g>
</g>
<g>
</g>
<g>
</g>
<g>
</g>
<g>
</g>
<g>
</g>
<g>
</g>
<g>
</g>
<g>
</g>
<g>
</g>
<g>
</g>
<g>
</g>
<g>
</g>
<g>
</g>
</svg>
