<?xml version="1.0" encoding="iso-8859-1"?>
<!-- Generator: Adobe Illustrator 21.0.0, SVG Export Plug-In . SVG Version: 6.00 Build 0)  -->
<svg xmlns="http://www.w3.org/2000/svg" xmlns:xlink="http://www.w3.org/1999/xlink" version="1.1" id="Capa_1" x="0px" y="0px" viewBox="0 0 512 512" style="enable-background:new 0 0 512 512;" xml:space="preserve" width="512" height="512">
<g>
	<path d="M66.66,147.836c25.938-43.439,123.676-54.21,174.3-55.469v109.704C134.368,199.381,68.198,168.927,66.66,147.836z"/>
	<path d="M300.96,284.252v16.695c-133.122,10.458-234.33-26.652-234.33-53.313v-55.318c44.711,29.258,123.573,38.883,177.5,39.907   C252.02,258.473,273.86,278.707,300.96,284.252z"/>
	<path d="M390.96,184.103v-72.815c25.7,9.104,45.28,21.317,54.37,36.538C444.66,157.622,427.74,172.312,390.96,184.103z"/>
	<path d="M445.37,192.265v55.368c0,8.433-13.02,22.741-49.72,35.325c-18.75,6.427-40.71,11.401-64.69,14.739v-13.446   c32.98-6.738,58.15-35.234,59.89-69.827C397.695,215.169,428.176,203.544,445.37,192.265z"/>
	<path d="M445.37,292.734v61.635C416.455,397.863,307.9,406.68,256,406.68c-117.22,0-189.37-33.351-189.37-55.048v-58.898   c56.302,36.842,165.117,43.547,234.33,38.373v14.82c0,8.302,6.72,15.04,15,15.04c8.29,0,15-6.738,15-15.04v-17.888   C367.18,323.288,414.665,312.827,445.37,292.734z"/>
	<path d="M445.367,456.038v-59.402c-81.554,53.458-297.435,53.273-378.735,0.104v59.36   C110.931,530.479,400.91,530.808,445.367,456.038z"/>
	<path d="M390.96,15.04c0,8.302-6.71,15.04-15,15.04h-45v30.081h-30V30.081h-45c-8.28,0-15-6.738-15-15.04S247.68,0,255.96,0h120   C384.25,0,390.96,6.738,390.96,15.04z"/>
	<g>
		<path d="M270.96,181.486v29.078c0,24.898,20.206,45.121,45,45.121c24.82,0,45-20.244,45-45.121v-29.078H270.96z"/>
		<rect x="270.96" y="90.242" width="90" height="61.164"/>
	</g>
</g>















</svg>
